# xmcd
#
# Track frame offsets:
#	150
#	20390
#	37442
#	56250
#	77035
#	101895
#	122027
#	145417
#	166455
#	189057
#	210630
#	230540
#	259227
#
# Disc length: 3690 seconds
#
# Revision: 0
# Processed by: cddbd v1.5.2PL0 Copyright (c) Steve Scherf et al.
# Submitted via: audiograbber 1.83.01
#
DISCID=b60e680d
DTITLE=Amanda Marshall - Tueday's child
DYEAR=1900
DGENRE=
TTITLE0=Believe in you
TTITLE1=Love lift me
TTITLE2=Why don't you love me?
TTITLE3=Too little, too late
TTITLE4=If I din't have you
TTITLE5=Ride
TTITLE6=Right here all along
TTITLE7=Wishful thinking
TTITLE8=Shades of grey
TTITLE9=Give up giving in
TTITLE10=Best of me
TTITLE11=Never said goodbye
TTITLE12=Out of bounds
EXTD=
EXTT0=
EXTT1=
EXTT2=
EXTT3=
EXTT4=
EXTT5=
EXTT6=
EXTT7=
EXTT8=
EXTT9=
EXTT10=
EXTT11=
EXTT12=
PLAYORDER=
